<svg width="113" height="120" viewBox="0 0 113 120" fill="none" xmlns="http://www.w3.org/2000/svg">
<mask id="mask0_10_49" style="mask-type:alpha" maskUnits="userSpaceOnUse" x="0" y="0" width="113" height="120">
<path d="M56.5 120C87.7041 120 113 93.1371 113 60C113 26.8629 87.7041 0 56.5 0C25.2959 0 0 26.8629 0 60C0 93.1371 25.2959 120 56.5 120Z" fill="black"/>
</mask>
<g mask="url(#mask0_10_49)">
<path d="M56.5 120C87.7041 120 113 93.1371 113 60C113 26.8629 87.7041 0 56.5 0C25.2959 0 0 26.8629 0 60C0 93.1371 25.2959 120 56.5 120Z" fill="black"/>
<path d="M93.8578 105.013L43.4058 35.9995H33.9V83.9795H41.5046V46.2552L87.8883 109.896C89.9813 108.409 91.9751 106.776 93.8578 105.013Z" fill="url(#paint0_linear_10_49)"/>
<path d="M79.7278 35.9995H72.1945V83.9995H79.7278V35.9995Z" fill="url(#paint1_linear_10_49)"/>
</g>
<defs>
<linearGradient id="paint0_linear_10_49" x1="68.4278" y1="77.6662" x2="92.3554" y2="105.593" gradientUnits="userSpaceOnUse">
<stop stop-color="white"/>
<stop offset="1" stop-color="white" stop-opacity="0"/>
</linearGradient>
<linearGradient id="paint1_linear_10_49" x1="75.9611" y1="35.9995" x2="75.8188" y2="71.2494" gradientUnits="userSpaceOnUse">
<stop stop-color="white"/>
<stop offset="1" stop-color="white" stop-opacity="0"/>
</linearGradient>
</defs>
</svg>
