<?xml version="1.0" encoding="UTF-8"?>
<svg width="99" height="108" viewBox="0 0 99 108" xmlns="http://www.w3.org/2000/svg">
 <path d="M89.332 0H9.66797C4.3285 0 0 4.722 0 10.5469V97.4531C0 103.278 4.3285 108 9.66797 108H89.332C94.6715 108 99 103.278 99 97.4531V10.5469C99 4.722 94.6715 0 89.332 0Z" fill="#3178C6"/>
 <path d="m61.283 85.941v10.56c1.5736 0.8801 3.4347 1.5399 5.5833 1.9799s4.413 0.66 6.7937 0.66c2.3201 0 4.524-0.2419 6.6121-0.726 2.0881-0.4839 3.919-1.2815 5.4925-2.3925 1.5736-1.1108 2.8194-2.5629 3.7373-4.3558 0.9179-1.793 1.3769-4.0093 1.3769-6.6492 0-1.9141-0.2622-3.5914-0.7868-5.0323-0.5246-1.441-1.281-2.7224-2.2696-3.8444-0.9885-1.122-2.1738-2.1285-3.5557-3.0195-1.382-0.891-2.9404-1.7325-4.6754-2.5243-1.271-0.5721-2.4108-1.1275-3.4196-1.6664-1.0088-0.5392-1.8661-1.0891-2.5723-1.65-0.7061-0.5611-1.2508-1.1551-1.634-1.782-0.3833-0.6271-0.5751-1.3365-0.5751-2.1286 0-0.7258 0.1715-1.3803 0.5145-1.9634 0.3431-0.583 0.8272-1.0833 1.4526-1.5014 0.6255-0.4179 1.392-0.7425 2.2998-0.9735 0.908-0.231 1.9165-0.3464 3.0262-0.3464 0.8069 0 1.6593 0.0661 2.557 0.1979 0.8978 0.132 1.8006 0.3356 2.7086 0.6104 0.9078 0.2751 1.7903 0.6217 2.6479 1.0395 0.8573 0.4181 1.6491 0.902 2.3754 1.4521v-9.8668c-1.4726-0.6159-3.0816-1.0724-4.8267-1.3694-1.745-0.297-3.7475-0.4455-6.0069-0.4455-2.3 0-4.4787 0.2696-6.5365 0.8085-2.0577 0.539-3.8683 1.3804-5.432 2.5243-1.5635 1.1442-2.7991 2.6015-3.7069 4.3726-0.9078 1.7708-1.3618 3.8882-1.3618 6.3521 0 3.146 0.8322 5.8299 2.4966 8.0519 1.6643 2.2218 4.1911 4.1028 7.5805 5.6428 1.3315 0.594 2.5722 1.1768 3.7221 1.7489 1.15 0.5721 2.1436 1.1661 2.9807 1.782 0.8372 0.6159 1.4979 1.2869 1.9823 2.013 0.4842 0.7258 0.7263 1.5508 0.7263 2.4749 0 0.682-0.1514 1.3144-0.454 1.8974-0.3027 0.583-0.7617 1.0889-1.377 1.5179-0.6152 0.4291-1.3819 0.7644-2.2998 1.0064-0.918 0.2421-1.9922 0.363-3.2229 0.363-2.0981 0-4.176-0.4014-6.2339-1.2044-2.0577-0.8029-3.9643-2.0073-5.7194-3.6134zm-16.273-26.018h12.418v-8.6657h-34.611v8.6657h12.357v38.584h9.837v-38.584z" clip-rule="evenodd" fill="#fff" fill-rule="evenodd"/>
</svg>
