<svg width="98" height="98" viewBox="0 0 98 98" fill="none" xmlns="http://www.w3.org/2000/svg">
<path d="M12.1998 37.4995C12.1998 47.705 18.2425 56.4993 26.9452 60.4995H12.1998C12.1998 74.4723 23.527 85.7995 37.4998 85.7995C47.7054 85.7995 56.4996 79.7568 60.4998 71.0541V85.7995C74.4726 85.7995 85.7998 74.4723 85.7998 60.4995C85.7998 50.2939 79.7571 41.4997 71.0545 37.4995H85.7998C85.7998 23.5267 74.4726 12.1995 60.4998 12.1995C50.2943 12.1995 41.5 18.2421 37.4998 26.9448V12.1995C23.527 12.1995 12.1998 23.5267 12.1998 37.4995Z" fill="#2929A3"/>
<path d="M60.4998 48.9995C60.4998 55.3507 55.3511 60.4995 48.9998 60.4995C42.6485 60.4995 37.4998 55.3507 37.4998 48.9995C37.4998 42.6482 42.6485 37.4995 48.9998 37.4995C55.3511 37.4995 60.4998 42.6482 60.4998 48.9995Z" fill="#FF6680"/>
</svg>
